<svg width="18" height="18" viewBox="0 0 18 18" fill="none" xmlns="http://www.w3.org/2000/svg">
<path opacity="0.4" d="M1.5 9.66001V8.34001C1.5 7.56001 2.1375 6.91501 2.925 6.91501C4.2825 6.91501 4.8375 5.95501 4.155 4.77751C3.765 4.10251 3.9975 3.22501 4.68 2.83501L5.9775 2.09251C6.57 1.74001 7.335 1.95001 7.6875 2.54251L7.77 2.68501C8.445 3.86251 9.555 3.86251 10.2375 2.68501L10.32 2.54251C10.6725 1.95001 11.4375 1.74001 12.03 2.09251L13.3275 2.83501C14.01 3.22501 14.2425 4.10251 13.8525 4.77751C13.17 5.95501 13.725 6.91501 15.0825 6.91501C15.8625 6.91501 16.5075 7.55251 16.5075 8.34001V9.66001C16.5075 10.44 15.87 11.085 15.0825 11.085C13.725 11.085 13.17 12.045 13.8525 13.2225C14.2425 13.905 14.01 14.775 13.3275 15.165L12.03 15.9075C11.4375 16.26 10.6725 16.05 10.32 15.4575L10.2375 15.315C9.5625 14.1375 8.4525 14.1375 7.77 15.315L7.6875 15.4575C7.335 16.05 6.57 16.26 5.9775 15.9075L4.68 15.165C3.9975 14.775 3.765 13.8975 4.155 13.2225C4.8375 12.045 4.2825 11.085 2.925 11.085C2.1375 11.085 1.5 10.44 1.5 9.66001Z" fill="url(#paint0_linear_1_100)"/>
<path d="M9 11.4375C10.3462 11.4375 11.4375 10.3462 11.4375 9C11.4375 7.65381 10.3462 6.5625 9 6.5625C7.65381 6.5625 6.5625 7.65381 6.5625 9C6.5625 10.3462 7.65381 11.4375 9 11.4375Z" fill="url(#paint1_linear_1_100)"/>
<defs>
<linearGradient id="paint0_linear_1_100" x1="9.00375" y1="1.92084" x2="9.00375" y2="16.0792" gradientUnits="userSpaceOnUse">
<stop stop-color="#50AAFF"/>
<stop offset="1" stop-color="#2495FF"/>
</linearGradient>
<linearGradient id="paint1_linear_1_100" x1="9" y1="6.5625" x2="9" y2="11.4375" gradientUnits="userSpaceOnUse">
<stop stop-color="#50AAFF"/>
<stop offset="1" stop-color="#2495FF"/>
</linearGradient>
</defs>
</svg>
